<?xml version="1.0" standalone="no"?>
<!DOCTYPE svg PUBLIC "-//W3C//DTD SVG 20010904//EN"
 "http://www.w3.org/TR/2001/REC-SVG-20010904/DTD/svg10.dtd">
<svg version="1.0" xmlns="http://www.w3.org/2000/svg"
 width="145.000000pt" height="23.000000pt" viewBox="0 0 145.000000 23.000000"
 preserveAspectRatio="xMidYMid meet">

<g transform="translate(0.000000,23.000000) scale(0.100000,-0.100000)"
fill="#000000" stroke="none">
<path d="M950 200 c6 -11 13 -20 16 -20 2 0 0 9 -6 20 -6 11 -13 20 -16 20 -2
0 0 -9 6 -20z"/>
<path d="M1080 200 c-6 -11 -8 -20 -6 -20 3 0 10 9 16 20 6 11 8 20 6 20 -3 0
-10 -9 -16 -20z"/>
<path d="M1144 115 c0 -61 1 -89 3 -62 l4 47 43 0 c32 0 48 6 62 23 19 22 19
22 -2 4 -12 -10 -37 -17 -62 -17 l-41 0 -4 58 c-2 31 -3 8 -3 -53z"/>
<path d="M1322 118 l-2 -108 68 2 67 2 -62 3 -62 4 -4 102 -3 102 -2 -107z"/>
<path d="M1050 150 c-6 -11 -8 -20 -6 -20 3 0 10 9 16 20 6 11 8 20 6 20 -3 0
-10 -9 -16 -20z"/>
<path d="M1020 105 c-7 -9 -8 -15 -2 -15 5 0 12 7 16 15 3 8 4 15 2 15 -2 0
-9 -7 -16 -15z"/>
</g>
</svg>
